PathFileType	4	(X/Y/Z)	Walk1_0-155.trc
DataRate	CameraRate	NumFrames	NumMarkers	Units	OrigDataRate	OrigDataStartFrame	OrigNumFrames
30	30	10	22	m	30	0	155
Frame#	Time	Hip			RHip			RKnee			RAnkle			RBigToe			RSmallToe			RHeel			LHip			LKnee			LAnkle			LBigToe			LSmallToe			LHeel			Neck			Head			Nose			RShoulder			RElbow			RWrist			LShoulder			LElbow			LWrist		
		X1	Y1	Z1	X2	Y2	Z2	X3	Y3	Z3	X4	Y4	Z4	X5	Y5	Z5	X6	Y6	Z6	X7	Y7	Z7	X8	Y8	Z8	X9	Y9	Z9	X10	Y10	Z10	X11	Y11	Z11	X12	Y12	Z12	X13	Y13	Z13	X14	Y14	Z14	X15	Y15	Z15	X16	Y16	Z16	X17	Y17	Z17	X18	Y18	Z18	X19	Y19	Z19	X20	Y20	Z20	X21	Y21	Z21	X22	Y22	Z22
1	0.0333333333333333	-2.575280637508311	0.8065108597903217	0.38951673463222625	-2.573514990046214	0.8051862803212505	0.47244785006451084	-2.602913866339419	0.44630189729150116	0.5063402629833252	-2.6335555901126964	0.06525245908748578	0.5094250636921535	0.0	0.0	0.0	0.0	0.0	0.0	0.0	0.0	0.0	-2.575175387667532	0.8115238698443893	0.3055940152894057	-2.556507437252395	0.4503897271036955	0.29291832630395603	-2.5776249104153193	0.07248892210265728	0.28381367572456667	0.0	0.0	0.0	0.0	0.0	0.0	0.0	0.0	0.0	-2.5801678787181492	1.3891983183830219	0.39084481246968866	-2.4543456586011385	1.7365331547699094	0.43095904093221193	-2.4153085913645045	1.651769973998723	0.4095799835728498	-2.576220391310269	1.3825591923233798	0.5786535737021334	-2.566652870583046	1.095886293730016	0.6297781026057071	-2.4903783261751538	0.8552661093080777	0.6115111763557037	-2.5807909548460435	1.398078183208696	0.20225733263373435	-2.5535830221409657	1.1009249821940872	0.14733659287686862	-2.4888521835019186	0.8554339401379056	0.16589265475629086
2	0.0666666666666666	-2.5749220659410037	0.8051170788789613	0.38705431647558186	-2.5733140126013647	0.803684826320464	0.471860425334255	-2.602857379391018	0.44543036662485247	0.504827450979169	-2.621128126798104	0.0689576333384078	0.5097581267334403	0.0	0.0	0.0	0.0	0.0	0.0	0.0	0.0	0.0	-2.5746686630383078	0.8102532737079602	0.3011269498988859	-2.5535045420497196	0.45013871973227404	0.29126942593394417	-2.5752537390036694	0.07236171162040515	0.28478879135250434	0.0	0.0	0.0	0.0	0.0	0.0	0.0	0.0	0.0	-2.5790533234638686	1.3889468826133724	0.389142453977627	-2.451878604199457	1.7371473214053894	0.4282482965128608	-2.4149974733397586	1.6525290800257177	0.3938893643392979	-2.5882330625443495	1.3899433944167323	0.5602157271269186	-2.5650981496293053	1.0958399766754001	0.6279203877682225	-2.490694685832022	0.8562223925115306	0.6114880030229707	-2.5787747618431163	1.3978792958029882	0.20011978636016298	-2.551390652384423	1.0991380497163843	0.14524613997263736	-2.487945149437882	0.8571642395767292	0.1632963909995152
3	0.1	-2.574571090076143	0.8039186216674007	0.38466242413084945	-2.573267279281565	0.8023817129645748	0.4709838870813122	-2.6030216395018098	0.4446837383718172	0.5033392054398634	-2.608222467871612	0.07249470482593078	0.5100015822882082	0.0	0.0	0.0	0.0	0.0	0.0	0.0	0.0	0.0	-2.5740103202943394	0.8091869990101674	0.2971110841024769	-2.550650444795065	0.44992314358999136	0.28970148438229193	-2.5731935939244974	0.07229206240332016	0.285620162418687	0.0	0.0	0.0	0.0	0.0	0.0	0.0	0.0	0.0	-2.578027176220184	1.3886989638760625	0.3870494276826443	-2.4496081673312955	1.7376612271862895	0.42576942559377784	-2.4144078266927	1.6530738238862444	0.3804663327846115	-2.5975381558425057	1.3957574988711499	0.5448355211626507	-2.5635426547012177	1.0958465581225318	0.6259816263317413	-2.490865020346657	0.856861057780988	0.6113384274082614	-2.577006876265541	1.3976891381432306	0.197647198021367	-2.549542623347708	1.0975659458605371	0.14319896290929357	-2.487185395773351	0.8583043535553031	0.16104225774518913
4	0.1333333333333333	-2.5741826818912132	0.802982911116338	0.3824052307988283	-2.5733173166741325	0.8013704198916277	0.46969259342620856	-2.603431428735142	0.4440582268325091	0.5018850766029822	-2.596036714112725	0.075482487426243	0.5100781115083528	0.0	0.0	0.0	0.0	0.0	0.0	0.0	0.0	0.0	-2.573167340240508	0.8083665177424584	0.2938130885494552	-2.5481385796121505	0.4497373534493795	0.288211312060726	-2.5717712972326034	0.07224730394854072	0.2861326381790243	0.0	0.0	0.0	0.0	0.0	0.0	0.0	0.0	0.0	-2.5770404725643004	1.3884500689825627	0.3843945368568558	-2.4476175656875427	1.7380417712865313	0.4234415918879126	-2.413426411610189	1.6533919887919575	0.37037010233657425	-2.6029023424649886	1.3993685104695854	0.5337169522464944	-2.561965143012303	1.095919888170646	0.6239384118917949	-2.4907842355505427	0.857138989643359	0.6110029218396076	-2.575580443909771	1.3974849593991008	0.19470252829254237	-2.5482169788626234	1.09632965933171	0.14111602593605702	-2.4866886600873275	0.8586115491230897	0.1591957122905324
5	0.1666666666666666	-2.5736412860995306	0.8023185644452048	0.3803243931120225	-2.573222546010749	0.8006960448794472	0.46805028178927655	-2.60388590686307	0.44357547339171016	0.5004728239872631	-2.587020519890516	0.07743363020666777	0.5099853220405162	0.0	0.0	0.0	0.0	0.0	0.0	0.0	0.0	0.0	-2.572157523729727	0.807757016841701	0.29125666696987945	-2.546132495754099	0.4495353572580266	0.28675211163758063	-2.5712089525679023	0.07212210403966007	0.28618326825771134	0.0	0.0	0.0	0.0	0.0	0.0	0.0	0.0	0.0	-2.5759427563902313	1.3882516714003643	0.38121156967517855	-2.4458395894859097	1.7383128185748447	0.42091540824070306	-2.412085759180394	1.653615102384856	0.3632030573503739	-2.604621509779322	1.401089020187253	0.5262040427366952	-2.5602980517153684	1.0960424457139095	0.6217690937869601	-2.490362013720845	0.8571898517436295	0.6104900838605123	-2.5744726402640357	1.3972709694449026	0.19131119819611708	-2.5474112853454365	1.0954524531167593	0.13884415213665877	-2.486476731058635	0.8581686438385772	0.15755449313313272
6	0.2	-2.5727713983163247	0.8019612201207269	0.37832662877677536	-2.5726752950358946	0.8004151571450215	0.46614076768919593	-2.603938024885429	0.4433968640855137	0.4990922235618891	-2.58298884417849	0.07804627055341071	0.5098000199101299	0.0	0.0	0.0	0.0	0.0	0.0	0.0	0.0	0.0	-2.570939975438764	0.8073678998282388	0.2891697035511236	-2.5446467348371264	0.4492962383338652	0.2852322406738681	-2.5714890296723816	0.07182851064798276	0.2857493486878748	0.0	0.0	0.0	0.0	0.0	0.0	0.0	0.0	0.0	-2.5745763924424176	1.3881999795352196	0.37761827304166207	-2.4440678717164763	1.7385090077116447	0.41777696911139045	-2.4104450083556497	1.6538761289799948	0.35764779754200254	-2.6036498346976193	1.40162149974272	0.5209432683157784	-2.5584230010710187	1.0962192225787244	0.6193599337488226	-2.489493309452477	0.8571007625914104	0.6097781527470371	-2.5736449661603356	1.3971090810632645	0.18749437731872612	-2.5470406122984706	1.094902374220064	0.13624024268348434	-2.486443296169634	0.8572082024946082	0.1557642691914858
7	0.2333333333333333	-2.5713990876904695	0.8019464895299366	0.37613780464437413	-2.5714042443909766	0.8005597209358419	0.463911455949475	-2.6029800693946585	0.443716907350767	0.49768825439109476	-2.584372033381997	0.07727413389183327	0.5095800636758104	0.0	0.0	0.0	0.0	0.0	0.0	0.0	0.0	0.0	-2.569432025563118	0.807236633978531	0.2870507672378476	-2.543529444710974	0.44907875420245624	0.28347698370363766	-2.5723743904777807	0.07136032657147613	0.2849917101225187	0.0	0.0	0.0	0.0	0.0	0.0	0.0	0.0	0.0	-2.5728261548495395	1.3883400582986773	0.3737686839881088	-2.4420483864038576	1.7386292535584777	0.41375004880288874	-2.4085401295124664	1.654255425044426	0.3522763224214032	-2.6009349421159262	1.4016199488240189	0.5168084390685438	-2.556241198967346	1.0965073998752581	0.6165651699797665	-2.488114973702795	0.8568804251621811	0.6087509682063564	-2.573035906697495	1.3970558397885982	0.1832628491828601	-2.5470131405208134	1.0946105300617983	0.13319847773681615	-2.4864118042113788	0.8560095465158809	0.15346487114358762
8	0.2666666666666666	-2.569414314689981	0.8022666101744872	0.37339975449916835	-2.5692387556829854	0.8010990683955659	0.46116465249982463	-2.60030183224201	0.44469523939818073	0.49615423844789336	-2.5908006686238063	0.07522899183144846	0.5092986442523866	0.0	0.0	0.0	0.0	0.0	0.0	0.0	0.0	0.0	-2.567576206424672	0.8073793496732351	0.28437443260330453	-2.5425669503374855	0.4489353105491726	0.2812633074811827	-2.5735836940667975	0.07078707039918256	0.2841908388295829	0.0	0.0	0.0	0.0	0.0	0.0	0.0	0.0	0.0	-2.5705666974855608	1.3886230206065446	0.3698430303715756	-2.439586874828238	1.7385916819572194	0.40884233140452436	-2.4063966761005307	1.6547641609756187	0.3460072386599137	-2.5971760060670057	1.401498039737509	0.5131066078690574	-2.553730339486833	1.0969716542283483	0.6132909387634256	-2.486223228492981	0.8565710512768672	0.6072026880096929	-2.5724518861287358	1.3971044464211126	0.17874067710515226	-2.547215889741321	1.0944652138379205	0.12962732129788748	-2.4862405244041126	0.8548419164227392	0.15034402817387044
9	0.3	-2.5668047760634227	0.8028373436481784	0.36983207196483114	-2.5661373020837734	0.8019081513191986	0.45768681607080797	-2.595077817667321	0.4464389666374147	0.49434956666116175	-2.6011195847283712	0.07226760877103425	0.5089042526660239	0.0	0.0	0.0	0.0	0.0	0.0	0.0	0.0	0.0	-2.5653890933168544	0.807752477843226	0.2807856945052769	-2.5416199498414787	0.4487723526012153	0.27843714767437044	-2.5749384170119454	0.07018808629224033	0.28352360190590087	0.0	0.0	0.0	0.0	0.0	0.0	0.0	0.0	0.0	-2.5676558921193657	1.388919470966164	0.3659759513333206	-2.43659096191728	1.7382629575637607	0.40333245854329997	-2.4040402277158175	1.6553229360105925	0.338250694640611	-2.592828086157493	1.4013910277957748	0.5093977482482892	-2.5509242044858675	1.09761907050033	0.6094641859706271	-2.4838038893786507	0.8563286950294658	0.6049231679018052	-2.571550647247682	1.3971735782639996	0.17414588677237688	-2.5474948933079102	1.0942980816163415	0.1254817881597672	-2.4858948775141902	0.853875919029455	0.14615605618781605
10	0.3333333333333333	-2.5636302883191884	0.8034480280550619	0.3653442807545434	-2.5621493147107404	0.8027222668681594	0.45338811774040805	-2.586416915589184	0.4489323599005148	0.49211995249786267	-2.612867103649386	0.06909088844053432	0.5083715740500391	0.0	0.0	0.0	0.0	0.0	0.0	0.0	0.0	0.0	-2.5629554830903554	0.8081886388707803	0.2761818474612312	-2.5406661162267072	0.44834756064987275	0.2749815097071049	-2.576356960462965	0.06959431260324687	0.2829067117648519	0.0	0.0	0.0	0.0	0.0	0.0	0.0	0.0	0.0	-2.5640716915864266	1.3890452628854093	0.3621091053043534	-2.433048520737372	1.7375550834487883	0.3975705234606243	-2.401449010696418	1.6557397223892902	0.32914888092163624	-2.588204768053323	1.401222444069836	0.5053455732936102	-2.547864592517252	1.09837269594892	0.6049742649686933	-2.4807671364623984	0.8563782075782427	0.6018367790989474	-2.5699834279635825	1.3971253296483297	0.16959246818595297	-2.5476997353064634	1.0938917613306942	0.12083285835750812	-2.4854552327736306	0.8530846165734197	0.14086725729656124
